<svg xmlns="http://www.w3.org/2000/svg" xmlns:xlink="http://www.w3.org/1999/xlink" width="350" height="295.6"><style>.O{fill:#fc5b3f}.P{fill:#c1a7a7}.Q{fill:#fff}.R{enable-background:new}</style><path d="M140.2 52.5l-11-2.8c-16.1-3.9-33.5-7.9-49-2-12.6 4.9-22 15.5-30.8 25.7-11.6 13.4-23.2 27-31.9 42.4-20.5 36.7-23.6 88.6-6.2 126.7 6.9 15.2 16.1 29.9 30 39.2 14.4 9.7 32.6 12.7 49.9 11.1s33.9-7.6 49.8-14.3c17.8-7.6 36.6-16.7 55.6-12.9 9.9 2 18.8 7.2 27.7 12 15.6 8.3 32.4 15.4 50.1 16.9s36.5-3 49.3-15.4c12.5-12 17.8-29.6 20.8-46.6 3.2-17.7 3.8-35.8 2.1-53.6-1.7-17.3 5.6-33.8 2.7-51.6-2.2-13.9-9.5-27.5-21.4-35.2-14.7-9.5-33.6-8.8-51.1-8.4-14.9.4-29.8.3-44.8-.2-9.2-.3-18.3-.8-27.1-3.7-9.9-3.3-18.6-9.4-27.9-14.1-11.6-6.1-24.1-9.9-36.8-13.2z" opacity=".18" class="O R"/><use xlink:href="#J" class="P"/><linearGradient id="A" gradientUnits="userSpaceOnUse" x1="154.274" y1="106.641" x2="203.039" y2="99.254"><stop offset=".01"/><stop offset=".13" stop-opacity=".69"/><stop offset=".25" stop-opacity=".32"/><stop offset="1" stop-opacity="0"/></linearGradient><use xlink:href="#J" fill="url(#A)"/><path d="M211.5 199.7c.4 22.2-17.3 40.4-39.5 40.7-22.2.4-40.4-17.3-40.7-39.5v-1.2c0-1 0-2.1.1-3.1 1.7-22.1 20.9-38.7 43-37 20.9 1.7 37.1 19.1 37.1 40.1z" class="O"/><g fill="#020202" class="R"><path d="M154.5 218c-1.3 5.8.3 12-.9 17.8-9.3-4.6-16.4-12.5-19.9-22.3-.2-2-.2-4 .1-6 .3-2.2.7-4.3.1-6.5-.6-1.6-1.4-3.1-2.5-4.4.9-11.9 7-22.7 16.8-29.6.1.3.1.6 0 .8l-1.7 7.7a19.42 19.42 0 010 6.8c-.4 2.2-1.8 4.3-3.7 5.5-.7.3-1.5.7-2.2 1-.7.6-1.2 1.2-1.7 2-1.1 1.6-2 3.3-2.4 5.1-.5 1.9 0 3.8 1.3 5.2l11.2-2.2c1.1-.2 2.6-.4 3.4.5.9 1 .4 2.7.6 4.1.3 1.8 1.9 3.1 2.6 4.8 1.2 3.1-.4 6.5-1.1 9.7z" opacity=".14"/><path d="M144.3 171.7c-1.6 1.9-3.3 3.8-3.7 6.3-.2.6-.2 1 0 1.6.5.8 1.2 1.4 2.1 1.7 3.8 1.5 7.9 2.2 12 2.1-.2 2.2-.4 5 1.3 6.6.7.6 1.4.9 2.2 1.2 2.5 1 5.1 1.6 7.9 1.7 2.2.1 4.6-.1 6.8.1 2.8.3 5.4 1.3 7.8 2.9.6.4 1.1.8 1.4 1.5a3.73 3.73 0 01.3 2.1c0 2.4.4 4.9.9 7.3.6 2.3 1.6 4.7 3.6 6.1 1 .7 2.2 1.2 3.4 1.5l8.1 2.7c.2.1.4.1.7.1.2-.1.4-.3.5-.5.8-1.8 1.8-3.7 1.4-5.6s-1.9-3.4-2.6-5.1c-1.1-2.8-.3-6.2-1.2-9.1-.7-1.8-1.8-3.4-3.1-4.6-2.3-2.2-4.8-4.4-7.4-6.4-4.1-3.3-8.3-6.6-13.1-8.7-2-.8-4.1-1.7-5.2-3.5-1.3-2.2-.7-5.1-2.2-7.2-1.2-1.7-3.4-2.3-5.4-2.4a19.42 19.42 0 00-9.8 2.3c-3.2 1-4.7 2.9-6.7 5.3z" opacity=".14"/><path d="M211.5 199.7c0 12.3-5.6 23.9-15.3 31.5a4.67 4.67 0 01-1.4-1.4c-1.2-1.8-.8-4.7 1.1-5.7-.7.4-3.4-.6-4.1-.7l-4.1-.7c-2-.3-5.4-.2-6.6-2.2-.1-.3-.3-.6-.5-.7-.3-.3-.6-.5-.8-.6-1.2-.6-2.7-1.3-3-2.6-.2-1 .3-2.2-.2-3-.2-.3-.4-.5-.6-.7-.4-.8-.3-1.8.3-2.5 1.8-3 5.3-4.5 8.8-5.1s7-.5 10.4-1.5c2.2-.7 4.1-1.7 6.4-2 1.2-.2 2.7-.3 3.2-1.4.3-.7 0-1.4.3-2.1.1-.3.3-.6.4-.8.3-.8-.2-1.8-1-2.1-.1 0-.2-.1-.3-.1.3-.7.5-1.7-.1-2.2-.4-.3-.9-.4-1.5-.2-1.4.4-2.4 1.6-3.7 2.4-4 2.8-9.5 1.9-12.8-1.5-.6-.5-.9-1.1-1.1-1.8-.1-1.2.6-2.3 1.7-2.9 1.1-.5 2.2-.7 3.5-.7-.5-2.9-.9-5.8-1.3-8.7-6.6 1.8-9.4-4.6-10.3-9.8s2.8-7.2 7.7-7.5c14.9 6.2 24.9 21 24.9 37.3z" opacity=".14"/></g><linearGradient id="B" gradientUnits="userSpaceOnUse" x1="215.28" y1="203.013" x2="159.334" y2="254.728"><stop offset=".01"/><stop offset=".13" stop-opacity=".69"/><stop offset=".25" stop-opacity=".32"/><stop offset="1" stop-opacity="0"/></linearGradient><path d="M181.9 217.5c0 2.2 3.6 4.3 5.3 4.8l2.2.7c.7.4 1.1 1 1.1 1.8-.1.7-.6 1.1-.7 1.8-.1.6 0 1.1.2 1.6.7 2.2 3.3 3.5 3.9 5.6 3.7-.4 5.3-.1 8.9-.7l3-2-4.6-8.5c-.6-1.2-1.3-2.3-2.2-3.4-1-1-2.2-2-3.4-2.7-3.2-2.1-6.5-3.9-9.9-5.5.6.4-3.8 6-3.8 6.5z" fill="url(#B)"/><path d="M184.1 207.5c-.4 1.2-.7 2.6 0 3.7.4.5.8.7 1.3.9 1.2.6 2.7.5 3.8-.4.6-.7.9-1.4 1.1-2.2.9-3 1.6-6 2.1-9.1.1-.3.1-.6 0-.8-.2-.3-.4-.6-.7-.7-1.6-.8-4.1-1.6-5.1.4-1.1 2.5-1.7 5.6-2.5 8.2z" class="P"/><use xlink:href="#K" class="O"/><path d="M203.5 221.2c0 .2 0 .5-.1.7s-.3.4-.5.6a3.81 3.81 0 01-2.2.7c-.8 0-1.6-.3-2.2-.9-.4-.6-.6-1.3-.7-2-.3-1.5-.5-3.1-.5-4.6-.1-.4.1-.7.5-.7h.1c1.3-.3 3.7-.9 4.4.7.9 1.6 1.2 3.5 1.2 5.5z" class="P"/><use xlink:href="#L" class="O"/><linearGradient id="C" gradientUnits="userSpaceOnUse" x1="191.647" y1="208.213" x2="182.782" y2="222.275"><stop offset=".01"/><stop offset=".13" stop-opacity=".69"/><stop offset=".25" stop-opacity=".32"/><stop offset="1" stop-opacity="0"/></linearGradient><use xlink:href="#K" fill="url(#C)"/><path d="M182.9 209.7l.3 1c.2.5.4.9.6 1.3.4.5.7.8 1.2 1.2 1.2.8 2.5 1.4 3.9 1.9 2.2.8 4.4 1 6.6.7a2.17 2.17 0 01-1 1.1c-.5.2-1 .4-1.5.4-2.1-.1-4.1-.6-5.9-1.6l-2.1-.9c-.3-.1-.6-.3-.8-.5-.4-.3-.7-.7-.9-1-.5-.7-.7-1.5-.8-2.3 0-.4 0-.8.1-1.2 0-.2.3-.9.5-.9-.2.2-.2.5-.2.8z" fill="#473f47"/><linearGradient id="D" gradientUnits="userSpaceOnUse" x1="210.353" y1="235.52" x2="198.894" y2="209.747"><stop offset=".01"/><stop offset=".13" stop-opacity=".69"/><stop offset=".25" stop-opacity=".32"/><stop offset="1" stop-opacity="0"/></linearGradient><use xlink:href="#L" fill="url(#D)"/><path d="M195.9 167.4c1 .2 2.1.7 2.8 1.4.9 1 .9 2.5.9 3.8 0 9.8-1.9 19.5-5.3 28.6-.2.7-.6 1.3-1.2 1.6-.6.2-1.1.1-1.7-.1-2.2-.6-4.2-1.3-6.3-2.1l2.7-18.6c.1-.6.1-1-.1-1.6-.2-.4-.5-.7-.8-.8-3.2-2.3-6.5-4.4-9.9-6.2-2.8-1.4-6-3.1-6.7-6.2-.3-1-.1-2.2.6-3 .5-.5.9-.7 1.5-1 1.9-.9 4.1-2.1 6.3-1.9 1.7.2 2.3 1.1 3.7 1.9 4 2.2 9.3 2.9 13.5 4.2z" class="Q"/><linearGradient id="E" gradientUnits="userSpaceOnUse" x1="127.954" y1="183.409" x2="197.419" y2="186.218"><stop offset="0"/><stop offset="1" stop-opacity="0"/></linearGradient><path d="M187.4 201.6c-.2-.1.6-4.5.7-4.9.2-.8.8-4.7 1.5-2.1.1.6.2 1.1.2 1.8l.4 2.1c.1.6.3 1 .5 1.6.5.7 1 1.4 1.7 1.9.1.1.3.2.5.3.3 0 .5-.3.6-.5.3-.7.4-1.6.4-2.4.1-4.7 2.5-8.8 2.4-13.6 0-1.1-1.1-2.6-1.6-3.7-.4-.8-.7-1.8-.9-2.7-.6-3.2 1.3-6.3 1.6-9.5L189 173l-3.7 28 2.1.6z" fill="url(#E)"/><path d="M170.9 164.7l-3.9 2c-.4.2-.7.3-1 .5-4.1 1.7-8.6 2.3-13 1.9-.5-.1-.9-.1-1.3-.2-2.5-.4-4.9-1.7-6.6-3.6-2.1-2.4-2.5-5.9-2.7-9.2v-.9a61.66 61.66 0 01.9-12.1c.7-4.8 2.6-9.3 5.3-13.2 1.9-2.5 4.3-4.6 7.1-6 2.9-1.5 6.4-2.2 9.5-1.2 1.6.6 3.1 1.5 4.4 2.6.5.4.9.7 1.3 1.2.6.7.8 1.6 1 2.5 1.3 5.6-.5 11.3-1.9 16.9-.7 3.2-1.3 6.6.1 9.6 1.9 4.1 7 5.8.8 9.2z" class="O"/><linearGradient id="F" gradientUnits="userSpaceOnUse" x1="214.071" y1="158.502" x2="141.845" y2="148.222"><stop offset="0"/><stop offset="1" stop-opacity="0"/></linearGradient><path d="M170.9 164.7c-.1 1.3-1.8 1.8-3 1.9l-.8.1c-4.7.3-9.4-.2-13.9-1.3-.6-.2-1.1-.2-1.8-.1-.1 0-.2.1-.3.1v.3c-.3 1-.1 2.2.6 3-2.5-.4-4.9-1.7-6.6-3.6-2.1-2.4-2.5-5.9-2.7-9.2v-.9c-.1-2.4 0-4.8.2-7.2.1-2.2.4-4.3.9-6.4 1.3-3.9 3.7-7.4 6.9-10 .3-.3.7-.5 1-.7.8-.2 1.8-.1 2.5.5.7.3 1.2.7 1.7 1.3.6.8.9 1.8.9 2.8 0 1.4-.1 2.7-.4 4-.3 2-.7 4-1.3 5.9-.3.7-.5 1.4-.7 2.2a5.39 5.39 0 00.5 2.8c.4.7.4 1.6.7 2.4.6 1.7 1.5 3.3 2.7 4.6 2.5 2.7 5.9 4.4 9.5 5.1.7.1 1.5.3 2.2.6.8.3 1.2 1.1 1.2 1.8z" fill="url(#F)"/><path d="M159.1 130.6c1 1.2 2.5 2.1 4.1 2.2.3 0 .5 0 .7-.2s.4-.6.4-.8c.1-.7.2-1.5.2-2.2s.2-1.9.3-2.5c.2-1.9.9-3.7 2.1-5.1.2-.3.5-.7.8-.8 2-1.8-6.1-1.1-7.1-3.5-1.2 1.6-1.1 3.8-1.7 5.7-.4.9-.7 1.9-.9 2.9-.4 1.3 0 2.9 1.1 4.3z" class="P"/><linearGradient id="G" gradientUnits="userSpaceOnUse" x1="167.286" y1="114.46" x2="154.891" y2="141.516"><stop offset=".01"/><stop offset=".13" stop-opacity=".69"/><stop offset=".25" stop-opacity=".32"/><stop offset="1" stop-opacity="0"/></linearGradient><path d="M164.3 129.8l.1-.4.3-2.5c.2-1.9.9-3.7 2.1-5.1l.1-.2s-6.4-4.2-7 .7c-.8 4.9 4.4 7.5 4.4 7.5z" fill="url(#G)"/><path d="M171 118.9c.1 1-.1 2.1-.6 3-.3.4-.6.7-.9.9-2.5 1.9-6.4 1.5-8.8-.5-2.4-2.2-3.9-5.1-3.9-8.4a6.51 6.51 0 011.3-4.7c1.3-1.2 3.1-1.7 4.8-1.3 2.3.6 4.4 1.8 6.1 3.5 1.5 1.7 1.9 5.1 2 7.5z" class="P"/><path d="M193.9 180.5c1.3 1.7 2.3 3.6 3.1 5.6 4 9.8 6.6 20.1 7.7 30.7-3.3.4-6.6.4-9.8 0-.3-7.5-1.4-14.9-3.4-22.1-.4-1.5-.9-3-1.8-4.3-1.5-2.2-3.8-3.4-6.2-4.6-5.2-2.6-10.8-4.7-16.5-6.3-2.4-.7-4.8-1.3-7.2-2.1-2.1-.6-3.9-1.6-5.6-2.9s-2.8-3.3-3-5.4c0 .6 11.9 0 13-.2 3.7-.4 8.1-2.6 11.8-1 2.9 1.2 5.5 3.7 8.1 5.4 3.3 2.2 7.3 4.2 9.8 7.2z" class="Q"/><path d="M177 179.6l-20.8-10.3 24-8.6 18.9 8.3z" class="O"/><linearGradient id="H" gradientUnits="userSpaceOnUse" x1="181.105" y1="177.07" x2="173.101" y2="159.161"><stop offset="0"/><stop offset="1" stop-opacity="0"/></linearGradient><path d="M177.1 178l-17.4-8.5 20.1-7.3 15.8 7z" fill="url(#H)"/><path d="M148.1 135.5c-.1.4-.1.7-.1 1-.6 5.2-.1 10.5.1 15.7.1 3.3.6 9.5 3.9 11.1 6.4 3.1 18.6 2 18.6 2 1.4-.2 2.9-.2 4.3.2.7.3 1.5.7 2.2.9 2.7 1 5.7.6 8.5 0 .5-.1.9-.2 1.4-.5 1.1-.7 1-2.5.2-3.6-.9-.9-2.2-1.6-3.4-1.9-3.6-1.2-7.4-1.3-11-.5-.5.2-.9.3-1.4.4-.6.1-1.1.1-1.7.1h-4.3c-5 .1-9.6.1-10.4-5.9-.3-2.2-.4-4.4-.2-6.6.3-3.9 1.3-8 1.1-11.9 0-1.3-.4-2.5-.9-3.7-.6-1.1-1.7-1.9-3-2a3.83 3.83 0 00-3.1 2.1c-.4 1.2-.7 2.2-.8 3.1z" class="P"/><path d="M206.9 150.1l-26.4 13.7-3.5 15.8 22.1-10.6z" class="O"/><path d="M171.2 107.6c-.1-.2-.3-.3-.4-.4.4-.2.6-.6.6-.9-.1-.4-.4-.4-.7-.6s-.1-.4-.4-.7c-.2-.2-.4-.3-.6-.3l-2-.5c0-.3.1-.6-.1-.7-.2-.2-.7 0-1.1-.1-.6-.1-.7-.7-1.2-1.1-.8-.8-1.5 0-2.2.2s-1.1-.7-2.1-.8c-.7-.1-1.4 0-2.2.3-.7.2-1.4.6-2.1 1-.4.5-.7 1-.9 1.6-.5-.4-1.1-.3-1.5.2l-.1.1c-.2.4-.1.8-.4 1.2h-.6c-.2.1-.4.1-.6.3-.3.3-.5.7-.5 1-.3-.1-.6-.1-.8.1.2-.3.3-.6.3-.8.1-.2 0-.5-.2-.7s-.6 0-.5.3c.2-.4 0-.8-.4-1-.4-.1-.8 0-1.1.3-.1-.1.1-.4.1-.6 0-.1-.1-.1-.1-.2-.3-.3-.6-.5-.8-.6-.3-.1-.7-.1-.9.1-.1-.7-.7-1.8-1.6-1.6-.3.1-.5.4-.4.6-.7-.7-1.5-1-2.4-1-.3 0-.7.3-.6.6-.8-.6-1.8-.8-2.8-.7-.2 0-.4.1-.4.3-.1.2.2.4.3.2-.5-.1-1 .1-1.3.6-.5.6-.5 1.4.1 2 .6.5 1.7 0 1.5-.7.5.6 1.1.7 1.8.3.2.7.9 1.3 1.7 1.1.2 0 .4-.1.5-.2.2.7.7 1.3 1.5 1.5a4.11 4.11 0 002.2 0c-.4.3-.8.5-1.4.4-.2-.1-.5-.1-.7 0-.3.1-.5.3-.7.6l-.1.1c-.2.1-.5.1-.7 0-.3-.1-.7-.1-1 0-.4.1-.6.5-.5.8-.8-.2-1.7.4-1.9 1.2v.5c-.5-.2-.9 0-1.1.4-.1.2-.2.4-.2.6-.1.4-.1.7-.1 1.1 0 .2 0 .3.1.4s.2.2.4.2c-.2.2-.3.6-.3.8 0 .1.1.2.2.3.2.2.4.4.6.4.3.1.5 0 .7-.2.3-.2.3-.7.5-.9 0 .2 0 .4.2.6.2.1.4.2.6.2.1 0 .1 0 .2-.1 0 0 .1-.1.1-.2.2-.4.2-.8.1-1.2.2.2.5.2.7.2.3-.1.4-.3.5-.6v-.4c0-.2.3-.3.5-.4.2-.2.4-.3.6-.5.1-.1.9-1 .8-1.1.5.3 1 .2 1.4-.2.3.6.9.7 1.5.6-.9.7-1.9 1.4-2.6 2.2s-1.2 2-1.3 3.1c0 .6.2 1.1.5 1.6.4.5 1 .7 1.6.5 0-.3-.4-.6-.7-.5h-.1c-.4.1-.6.4-.7.7-.2.4-.2.9 0 1.3s.7.6 1.1.4c.2-.2.3-.4.4-.6l1-1.1c.4-.4.5-.9.2-1.4.6-.3.5-1 .2-1.6-.4-.5-.7-.9-.9-1.5h2l.9-.8c.8.5 1.8.7 2.7.4-.2.9.3 1.9 1.1 2.3-.2.1-.4.3-.4.5s.2.3.3.3h.5c.1.1-.1.3-.1.5 0 .1.1.2.2.2.2.1.4.3.6.3-.1.1-.1.3 0 .4l.3.3c.3.2.7.3 1 .4 0 .2 0 .4.1.6a.55.55 0 00.5.3c.1 0 .2-.1.3-.1s.1.1.1.1c.2.2.3.4.4.7 0 .1.1.2.1.3.1.1.2.2.4.3s.4.1.6 0c.1-.1.1-.3.1-.4-.1-.1-.1-.3-.2-.4.1 0 .2 0 .3-.1v-.3c-.1-.3-.3-.5-.5-.7v-.1s0-.1.1-.1c.2-.2 0-.5-.1-.7s-.3-.5-.2-.7c.1-.1.1-.2.2-.3s.1-.4.2-.5.3 0 .4.1.1.3.2.4c.2.2.4.3.6.5.1.1.3.3.4.5s.4.2.6.1c.1-.1.2-.2.2-.3 0-.3-.1-.5-.3-.7l-.2-.2c-.1-.1-.1-.2 0-.3.1 0 .2 0 .2-.1v-.1c0-.1-.1-.2-.1-.2l-.1-.1v-.1c.1-.2.2-.3.3-.5.1-.3 0-.6-.2-.7.4.3.9.2 1.2-.2s.5-.7.7-1.1c.3.2.7.2.8-.1.2-.3.2-.7-.1-.8h-.3c.3.1.5.2.7.3.3 0 .6-.1.7-.3.2-.3.1-.8.4-1.1l1.5 1.1c.9.3 1.9-.2 2.2-1.1v-.1c.5.3 1 .4 1.6.2.5-.4.6-.9.4-1.4.6-.1 1-.6 1-1.1-.3-1.1-.4-1.4-.6-1.7zm26.3 119.5s.9 1.9 7.3.8c6.4-1 9.3-3 9.6-4.1a1.72 1.72 0 01-.7 2.5c-1.6.9-7.7 5.1-15.2 2.5 0 .1-.9-.1-1-1.7z" fill="#473f47"/><path d="M157.5 115.6c-.1 0-.3 0-.4.1-.5.3-.7.8-.7 1.4.1.6.3 1 .7 1.5.2.2.4.4.6.5.3.1.7.2.9.2h.4c.3-.1.4-.4.4-.7.1-.7-.1-1.3-.4-2-.1-.2-.3-.4-.5-.5-.2-.2-.5-.4-1-.5z" class="P"/><path d="M150.9 108.4c-.4 1-.6 2.2-.6 3.4-.1.7 0 1.2.2 1.8.2.4.5.7.7 1 .6.1 1.1-.2 1.5-.6.1-.1.2-.2.2-.4.1-.4-.1-.7-.4-1-.6-1-.7-2.3-.4-3.5.2-.7 1.3-2.3-.2-2.1-.3.2-.8.8-1 1.4zM170.4 246h-.9a.5.5 0 110-1h.9a.5.5 0 110 1zm4.7 0a.5.5 0 110-1h.9a.5.5 0 110 1h-.9zm-10.3-.1h-.9a.47.47 0 01-.5-.5.47.47 0 01.5-.5h.9a.5.5 0 110 1zm15.9 0a.5.5 0 110-1h.9a.5.5 0 110 1h-.9zm-21.5-.3l-.9-.1c-.3 0-.5-.3-.5-.5a.47.47 0 01.5-.5l.9.1a.47.47 0 01.5.5c-.1.3-.2.5-.5.5zm27.1 0a.5.5 0 110-1l.9-.1a.5.5 0 110 1l-.9.1zm-32.7-.4l-.9-.1c-.3 0-.5-.3-.5-.5 0-.3.3-.5.6-.4l.9.1a.47.47 0 01.5.5c-.1.3-.3.4-.6.4zm38.3 0a.5.5 0 110-1l.9-.1c.3 0 .5.2.5.4 0 .3-.2.5-.4.5l-1 .2zm-43.9-.4l-1-.1c-.3 0-.5-.3-.4-.6s.3-.5.6-.4l.9.1a.47.47 0 01.5.5c0 .3-.3.5-.6.5zm49.6 0a.5.5 0 110-1l.9-.1c.3 0 .5.2.6.4 0 .3-.2.5-.4.6l-.9.1h-.2zm-55.2-.7l-1-.1c-.3 0-.5-.3-.4-.6s.3-.5.6-.4l.9.1c.3 0 .5.3.4.5-.1.2-.3.4-.5.5zm60.7 0a.5.5 0 110-1l.9-.1c.3 0 .5.1.6.4 0 .3-.1.5-.4.6l-1.1.1zm-66.2-.8l-1-.2c-.3 0-.5-.3-.5-.5 0-.3.3-.5.5-.5h.1l.9.2c.3 0 .5.3.4.6-.1.2-.3.3-.4.4zm71.8 0a.5.5 0 110-1l.9-.2c.3 0 .5.1.6.4 0 .3-.1.5-.4.6l-1.1.2zm-77.3-1l-1-.2c-.3-.1-.4-.3-.4-.6s.3-.4.6-.4l.9.2c.3.1.4.3.4.6-.1.2-.3.3-.5.2v.2zm82.8 0c-.2 0-.4-.2-.5-.4 0-.3.1-.5.4-.6l.9-.2c.3 0 .5.1.6.4s-.1.5-.3.6l-.9.2h-.2zm-88.4-1.2l-1-.2c-.3-.1-.5-.3-.4-.6s.3-.5.6-.4l.9.2c.3.1.4.3.4.6-.1.2-.3.4-.5.4zm93.8-.1c-.3 0-.5-.2-.5-.4 0-.3.2-.5.4-.5l.9-.2c.3-.1.5.1.6.4s-.1.5-.4.6l-1 .1zm-99.3-1.3l-1-.2c-.3-.1-.4-.4-.4-.6.1-.3.4-.4.6-.4l.9.3c.3.1.4.3.4.6-.1.2-.2.3-.5.3zm104.8 0c-.3 0-.5-.2-.6-.4s.2-.5.4-.6l.9-.2c.3-.1.6.1.6.4s-.1.6-.4.6l-.9.2zm-110.2-1.5l-1-.3c-.3-.1-.4-.3-.3-.6.1-.3.4-.4.6-.3l.9.3c.3 0 .5.3.4.6 0 .2-.3.4-.6.3zm115.6 0c-.2 0-.4-.1-.5-.4s.1-.5.3-.6l.9-.3c.3-.1.5.1.6.3.1.3-.1.5-.3.6l-1 .4zm-120.9-1.7h-.2l-.9-.3c-.3-.1-.4-.3-.4-.6s.3-.4.6-.4h.1l.8.3c.3.1.4.4.3.6 0 .2-.2.3-.3.4zm126.3-.1a.47.47 0 01-.5-.5c0-.2.1-.4.4-.5l.8-.3c.2-.1.5 0 .6.3.1.3-.1.5-.3.6l-1 .4zm-131.6-1.8h-.2l-.8-.4c-.3-.1-.4-.4-.3-.6.1-.3.4-.4.6-.3l.8.4c.3.1.4.4.3.6 0 .2-.2.4-.4.3zm136.9 0a.55.55 0 01-.5-.3c-.1-.3 0-.5.3-.6l.8-.4c.3-.1.5 0 .6.3s0 .5-.3.6l-.9.4zm-142-2.1H99l-.8-.4c-.2-.1-.4-.4-.3-.6.1-.3.4-.4.7-.2l.8.4c.3.1.4.4.2.7-.2 0-.3.1-.4.1zm147.1-.1a.55.55 0 01-.5-.3c-.1-.2 0-.5.2-.6l.8-.4c.2-.1.5 0 .7.2.1.3 0 .5-.2.7l-.8.4h-.2zm-152.2-2.3h-.2l-.8-.5c-.2-.1-.3-.4-.2-.7.1-.2.4-.3.6-.2l.8.5c.2.1.3.4.2.6s-.3.3-.4.3zm157.3-.1c-.3.1-.5-.1-.6-.4-.1-.3.1-.5.4-.6l.8-.5c.2-.1.5 0 .7.2.1.2 0 .5-.2.7l-.8.5c-.1 0-.2 0-.3.1zm-162.3-2.6c-.1 0-.2 0-.3-.1l-.7-.5c-.2-.2-.3-.5-.1-.7.1-.2.4-.3.6-.1l.7.5c.2.1.3.4.2.7 0 .1-.2.1-.4.2zm167.2-.2c-.2 0-.3-.1-.4-.2-.1-.2-.1-.5.2-.7l.7-.5c.2-.1.5 0 .7.2.1.2 0 .5-.2.6l-.7.5c-.1.1-.2.1-.3.1zm-171.8-3c-.1 0-.2 0-.3-.1l-.7-.6c-.2-.2-.3-.5-.1-.7.1-.2.4-.3.6-.2l.1.1.7.6c.2.2.3.5.1.7-.2.2-.2.2-.4.2zm176.5-.1a.47.47 0 01-.5-.5c0-.2.1-.3.2-.4l.7-.6c.2-.2.5-.1.7.1s.1.5-.1.7c-.3.2-.5.4-.7.6-.1.1-.2.1-.3.1zm-180.9-3.4c-.1 0-.2-.1-.3-.1l-.8-.6c-.2-.2-.2-.5 0-.7s.5-.2.7 0l.7.7c.2.2.2.5.1.7h-.4zm185.3-.2a.76.76 0 01-.4-.2c-.2-.2-.2-.5 0-.7l.7-.7c.2-.2.5-.2.7 0 .2.2.2.5 0 .7v.1l-.7.7c-.2.1-.3.1-.3.1zm-189.3-3.7a.76.76 0 01-.4-.2l-.7-.7c-.2-.2-.2-.5 0-.7.2-.2.5-.1.7.1l.6.7c.2.2.2.5 0 .7 0 .1-.1.1-.2.1zm193.2-.2a.47.47 0 01-.5-.5c0-.1 0-.2.1-.3l.6-.7c.2-.2.5-.2.7-.1.2.2.2.5.1.7l-.7.7c-.1.1-.1.2-.3.2zm-196.5-4.4c-.2 0-.3-.1-.4-.2l-.5-.8c-.1-.2 0-.5.2-.7.2-.1.5 0 .6.2.2.3.3.6.5.8.1.2.1.5-.2.7h-.2zm199.7-.2c-.1 0-.2 0-.3-.1-.2-.1-.3-.4-.2-.7.2-.3.3-.6.5-.8.1-.2.4-.3.7-.2.2.1.3.4.2.7-.2.3-.3.6-.5.8 0 .2-.2.3-.4.3zm-202.1-4.9a.55.55 0 01-.5-.3l-.3-.9c-.1-.3.1-.6.4-.6.3-.1.6.1.6.4l.3.8c.1.3 0 .5-.3.6h-.2zm204.5-.1c-.4-.1-.5-.4-.4-.6l.3-.8c.1-.3.4-.4.6-.4.3.1.4.4.4.6l-.3.9c-.2.2-.4.3-.6.3zm-205.5-5.3a.47.47 0 01-.5-.5v-.9a.47.47 0 01.5-.5.47.47 0 01.5.5v.9a.47.47 0 01-.5.5zm206.5-.3c-.3 0-.5-.3-.5-.5v-.9a.5.5 0 111 0v.9a.47.47 0 01-.5.5zm0-2.3a.47.47 0 01-.5-.5c0-.3 0-.7-.1-.9 0-.3.2-.5.5-.6.3 0 .5.2.5.4 0 .3.1.7.1.9 0 .4-.2.7-.5.7zm-206-3c-.4 0-.5-.3-.5-.6.1-.3.2-.7.2-.9.1-.3.3-.4.6-.4.3.1.4.3.3.6s-.2.6-.2.8c-.1.4-.3.5-.4.5zm204.9-2.4a.55.55 0 01-.5-.3l-.3-.8c-.1-.3 0-.5.3-.6.3-.1.5 0 .6.3.1.3.2.6.4.9.1.3 0 .5-.3.6-.1-.1-.2-.1-.2-.1zm-203.1-2.8h-.2c-.2-.1-.3-.4-.2-.6.1-.3.3-.6.5-.8.1-.2.4-.3.7-.2.2.1.3.4.2.7l-.4.8c-.3 0-.4.1-.6.1zm200.7-2.3c-.2 0-.3-.1-.4-.2l-.5-.7c-.2-.2-.1-.5.1-.7.2-.1.5-.1.7.1l.5.8c.1.2.1.5-.2.7h-.2zm-197.7-2.5c-.1 0-.2 0-.3-.1-.2-.2-.3-.5-.1-.7l.6-.7c.2-.2.5-.2.7 0a.47.47 0 01.1.6l-.6.7c-.2.2-.3.3-.4.2zm194.4-2a.76.76 0 01-.4-.2c-.2-.2-.4-.5-.7-.7-.2-.2-.2-.5 0-.7s.5-.2.7 0l.7.7c.2.2.2.5 0 .7-.1.2-.2.2-.3.2zm-190.7-2.2a.47.47 0 01-.5-.5c0-.1 0-.3.1-.3l.7-.7c.2-.2.5-.2.7 0 .2.2.2.5 0 .7l-.7.7c0 .1-.2.1-.3.1zm186.7-1.7c-.1 0-.2 0-.3-.1l-.7-.6c-.2-.2-.2-.5-.1-.7.2-.2.5-.2.7-.1l.7.7c.2.2.2.5 0 .7-.1 0-.3.1-.3.1zm-182.5-2a.47.47 0 01-.5-.5.76.76 0 01.2-.4l.7-.6c.2-.2.5-.1.7.1s.1.5-.1.7l-.7.6c-.1.1-.2.1-.3.1zm178.1-1.6c-.1 0-.2 0-.3-.1l-.7-.6c-.2-.2-.3-.5-.1-.7s.5-.3.7-.1l.7.6c.2.2.3.5.1.7s-.4.2-.4.2zm-173.5-1.7a.47.47 0 01-.5-.5c0-.2.1-.3.2-.4l.7-.5c.2-.1.5-.1.7.2s.1.5-.2.7l-.7.5h-.2zm168.8-1.3c-.1 0-.2 0-.2-.1l-.8-.5c-.2-.1-.3-.4-.2-.7.1-.2.4-.3.7-.2l.8.5c.2.1.3.4.2.7-.2.2-.4.3-.5.3zm-164-1.5a.47.47 0 01-.5-.5c0-.2.1-.4.3-.4l.8-.5c.2-.1.6 0 .7.2s0 .6-.2.7l-.8.5c-.2-.1-.3 0-.3 0zm159-1.2c-.1 0-.2 0-.2-.1l-.8-.4c-.2-.1-.3-.4-.2-.6.1-.2.4-.4.7-.2l.8.5c.2.1.3.4.2.7-.2 0-.3.1-.5.1zm-154-1.4c-.2 0-.4-.1-.4-.3-.1-.2 0-.5.2-.7l.8-.4c.3-.1.5.1.6.3s0 .5-.2.6l-.8.4c0 .1-.1.1-.2.1zm149-1h-.2l-.8-.4c-.2-.1-.4-.4-.2-.7.1-.2.4-.3.6-.3l.8.4c.3.1.4.3.4.6-.2.4-.4.5-.6.4zm-143.8-1.2a.55.55 0 01-.5-.3c-.1-.3 0-.5.3-.6l.8-.4c.3-.1.5 0 .6.3.1.2 0 .5-.3.6l-.9.4zm138.6-1h-.2l-.8-.4c-.3-.1-.4-.3-.4-.6s.3-.4.6-.4h.1l.8.4c.3.1.4.4.3.6s-.3.3-.4.4zm-133.4-1a.55.55 0 01-.5-.3c-.1-.3 0-.5.3-.6l.9-.3c.3-.1.5 0 .6.3.1.3-.1.5-.3.6l-.8.3h-.2zm128.1-.9h-.2l-.8-.3c-.3-.1-.4-.4-.3-.7s.4-.4.7-.3l.9.3c.3.1.4.4.3.6-.3.2-.4.4-.6.4zm-122.8-1c-.3 0-.5-.1-.6-.4 0-.3.1-.5.4-.6l.9-.3c.3-.1.5.1.6.3.1.3 0 .5-.3.6l-1 .4zm117.4-.7l-1-.3c-.3-.1-.4-.4-.3-.7s.3-.4.6-.3l.9.3c.3.1.4.3.3.6-.1.3-.3.4-.5.4zm-112-.9c-.3 0-.5-.1-.6-.4 0-.3.1-.5.4-.6l.9-.3c.3 0 .5.2.6.4 0 .2-.1.5-.3.6l-1 .3zm106.6-.6l-1-.2c-.3-.1-.4-.3-.4-.6.1-.3.3-.4.6-.4l.9.2c.3 0 .5.3.4.6s-.2.5-.5.4zm-101.1-.8c-.3 0-.5-.2-.6-.4 0-.3.2-.5.4-.6l.9-.2c.3-.1.6.1.6.4s-.1.6-.4.6l-.9.2zm95.7-.5l-1-.2c-.3-.1-.4-.3-.4-.6s.3-.4.6-.4l.9.2c.3 0 .5.3.5.5-.2.4-.3.6-.6.5zm-90.2-.7c-.2 0-.4-.2-.5-.4-.1-.3.1-.5.4-.6l.9-.2c.3 0 .5.1.6.4s-.1.5-.4.6l-1 .2zm84.7-.5l-1-.2c-.3-.1-.4-.3-.4-.6.1-.3.3-.4.6-.4l.9.2c.3.1.4.3.4.6-.1.3-.4.4-.5.4zm-79.2-.5a.5.5 0 110-1l.9-.2c.3 0 .5.1.6.4 0 .3-.1.5-.4.6l-1.1.2zm73.6-.4l-1-.2c-.3 0-.5-.3-.4-.6.1-.3.3-.5.6-.4l.9.1c.3.1.5.3.4.6a.47.47 0 01-.5.5zm-68-.5c-.3 0-.5-.2-.5-.4a.47.47 0 01.5-.5l.9-.1c.3 0 .5.1.6.4 0 .3-.2.5-.4.6h-1.1zm62.5-.3l-1-.1c-.3 0-.5-.3-.4-.6 0-.3.3-.5.5-.4l.9.1c.3 0 .5.3.4.5 0 .3-.2.5-.4.5-.1 0-.1 0 0 0zm-5.6-.7l-.9-.1c-.3 0-.5-.3-.4-.6 0-.3.3-.5.6-.4l.9.1a.5.5 0 110 1h-.2zm-5.6-.6l-.9-.1c-.3 0-.5-.3-.5-.5 0-.3.3-.5.5-.5l.9.1a.47.47 0 01.5.5c-.1.4-.2.5-.5.5zm-5.6-.3h-.9c-.3 0-.5-.3-.5-.5 0-.3.3-.5.5-.5l.9.1a.47.47 0 01.5.5c0 .3-.3.5-.5.4zm-5.7-.3h-.9a.47.47 0 01-.5-.5.47.47 0 01.5-.5h.9a.5.5 0 110 1zm-5.6-.1h-.9a.5.5 0 110-1h.9a.47.47 0 01.5.5.47.47 0 01-.5.5z" class="O"/><circle cx="66.7" cy="194.1" r="18.3" class="Q"/><path d="M64.6 191.8h11v4.3h-11v3.3h5.2v2.4h-5.2v3.7h-4.9v-3.7h-2.2v-2.4h2.2v-16.7h16.1v4.3H65.1c-.4 0-.6.1-.6.6v3.7l.1.5z" class="O"/><circle cx="115.7" cy="152.6" r="18.3" class="Q"/><path d="M127.7 146.1l-4.3 2.2c-1.6-2.5-3.8-3.8-6.8-3.4-2.3.3-4.3 1.8-5.4 3.8h8.7v2.7h-9.5v2.3h9.5v2.7h-8.8c1 2.2 3 3.6 5.3 3.9 2.8.6 5.6-.8 6.9-3.4l4.4 2.2c-.6.7-1 1.4-1.5 2.1-2.1 2.4-5.1 3.8-8.2 3.8-2.5.1-5-.6-7.2-1.8-2.4-1.3-4.2-3.6-5.1-6.2-.2-.5-.4-.7-.9-.7h-1.1v-2.7h1.2v-2.3h-1.2v-2.8h1.4c.3.1.5-.1.6-.4.7-1.9 1.8-3.7 3.3-5 1.4-1.3 3.2-2.2 5.1-2.7s3.8-.7 5.7-.4c2.8.4 5.3 1.9 6.9 4.1.4.5.7.9.9 1.3 0 .5.1.6.1.7z" class="O"/><circle transform="rotate(-74.52 231.87 155.142)" cx="231.9" cy="155.1" r="18.3" class="Q"/><path d="M225.2 167.3l-1.7-3.5c.5-.3.8-.5 1.3-.7 1.1-.7 2.1-1.7 2.5-2.9.2-.8.1-1.8-.3-2.6 0-.1-.3-.2-.4-.2h-3.9v-2.9h2.3c-.4-.7-.7-1.3-1-2-.8-1.9-.7-4.1.6-5.9 1.3-2 3.3-3.3 5.5-3.7 2.4-.6 5-.3 7.2.8 1.4.7 2.5 1.9 3.3 3.3l-4 2.2c-.3-.5-.7-.9-1-1.4-1-1-2.5-1.4-3.8-.9-1.8.4-3 2.2-2.6 3.9l.3.8c.4.8.8 1.7 1.3 2.4.1.1.3.2.5.2h4.8v2.9h-4c.2 1.8-.6 3.5-2.1 4.5l.7-.1c1.3-.1 2.6.1 3.7.7a3.97 3.97 0 004.3-.5c.2-.2.4-.3.5-.5l2 4a5.86 5.86 0 01-2.2 1.4c-1.9.7-3.9.7-5.7 0-.6-.2-1.1-.4-1.6-.7-1.5-.7-3.2-.7-4.7.1l-1.8 1.3z" class="O"/><circle cx="265.1" cy="219" r="18.3" class="Q"/><path d="M265.1 216.9l1.2-2 3.8-6.4c.1-.3.4-.4.7-.4h4.9l-6.6 10.2h5.7v2.6h-7.4v2.6h7.4v2.5h-7.4v3.7h-4.6V226h-7.4v-2.5h7.3V221h-7.4v-2.6h5.7l-6.6-10.3h4.9c.2 0 .5.1.6.3l3.2 5.2 2 3.3z" class="O"/><circle cx="115.4" cy="237.9" r="18.3" class="Q"/><path d="M113.8 226.1V223h3.7v3.2c2.6.3 5.1 1.4 6.9 3.2l-2.9 3.8c-1.1-1-2.5-1.8-4-2.2v4.2l2.7.9c3.3.8 5.2 4.1 4.5 7.4-.3 2-1.4 3.7-3.1 4.7-1.1.7-2.4 1.1-3.7 1.3-.4 0-.4.2-.4.5v2.6h-3.7v-2.9l-2.7-.6c-1.8-.5-3.5-1.4-4.8-2.6-.6-.6-.6-.6-.1-1.2l2.4-3.4c1.4 1.5 3.2 2.5 5.2 3V240c-1-.4-2.1-.7-3-1-1.8-.6-3.2-1.9-3.8-3.6-.7-1.7-.6-3.6.2-5.1a7.27 7.27 0 015.3-4c.3 0 .8-.1 1.3-.2zm3.6 18.9c1.1-.1 2-1 2.1-2.2 0-.8-.9-1.5-2.1-1.7v3.9zm-3.6-10.6v-3.6c-1 0-1.9.8-2 1.9 0 .7.8 1.5 2 1.7z" class="O"/><defs><path id="J" d="M163 129.6l8.4-27.5c1.1-5.2 1.6-11.5 2.2-16.9.3-1.8.3-3.6-.1-5.3-.6-2.2-2.1-4.8-.8-6.7 1.2-2 4.6-1.7 6.6-.3 2.9 1.9 4.8 6.2 2.5 8.7-.7.6-1.4 1.2-2 2-.7 1.2-.6 2.8-.4 4.2.7 6.6-.7 13.1-2.1 19.7l-3.7 17.9c-.9 4.4-2.3 9.4-6.6 11-.7.3-1.3.4-2 .1a2.36 2.36 0 01-.9-.8c-.8-1.6-1-4.2-1.1-6.1z"/><path id="K" d="M188.9 208.9c.4 0 .7 0 1 .1.2.1.4.3.6.5l3.5 4c.7.7 1.4 1.9.9 2.7-.4.6-.8.8-1.5.9-1.7.2-3.4-.2-5-.9l-3.2-1.6c-.7-.4-1.5-.9-2-1.6-.8-1.2-1-4.2.4-5.1.7-.5 1.3-.1 2.1.2 1.1.6 2.2.8 3.2.8z"/><path id="L" d="M208.9 221c1.1.1 2.2.3 3.2.7s1.9 1.1 2.3 2.2c.2.5.2 1 .1 1.6-.4.7-.9 1.3-1.7 1.7-3.7 2-7.7 2.8-11.8 2.6-1 0-2.1-.4-2.9-1-.6-.8-.8-1.9-.7-2.9l-.1-4.9c.9-.1 1.8.5 2.6.7 1.5.6 2.1-.7 3.4-1 1.5-.5 3.9.1 5.6.3z"/></defs></svg>